<?xml version="1.0" encoding="UTF-8"?>
<!-- Generator: Adobe Illustrator 19.1.0, SVG Export Plug-In . SVG Version: 6.00 Build 0)  -->
<svg width="150" height="111.2" version="1.1" viewBox="0 0 150 111.2" xml:space="preserve" xmlns="http://www.w3.org/2000/svg" xmlns:cc="http://creativecommons.org/ns#" xmlns:dc="http://purl.org/dc/elements/1.1/" xmlns:rdf="http://www.w3.org/1999/02/22-rdf-syntax-ns#"><metadata><rdf:RDF><cc:Work rdf:about=""><dc:format>image/svg+xml</dc:format><dc:type rdf:resource="http://purl.org/dc/dcmitype/StillImage"/><dc:title/></cc:Work></rdf:RDF></metadata><g transform="translate(-60,-90.6)" fill="#fff"><path d="m192.3 90.6c2.4 0 4.7 0.5 6.9 1.4s4 2.2 5.6 3.8 2.8 3.5 3.8 5.6 1.4 4.4 1.4 6.9v61.8c0 2.4-0.5 4.7-1.4 6.9s-2.2 4-3.8 5.6-3.5 2.9-5.6 3.8-4.4 1.4-6.9 1.4h-3.1v-6.1h3.1c1.6 0 3.1-0.3 4.5-0.9s2.6-1.5 3.7-2.5 1.8-2.3 2.5-3.7 0.9-2.9 0.9-4.5v-61.8c0-1.6-0.3-3.1-0.9-4.5s-1.4-2.6-2.5-3.7-2.3-1.9-3.7-2.5-2.9-0.9-4.5-0.9h-114.6c-1.6 0-3.1 0.3-4.5 0.9s-2.6 1.4-3.7 2.5-1.9 2.3-2.5 3.7-0.9 2.9-0.9 4.5v61.8c0 1.6 0.3 3.1 0.9 4.5s1.4 2.6 2.5 3.7 2.2 1.9 3.7 2.5 2.9 0.9 4.5 0.9h3.1v6.1h-3.1c-2.4 0-4.7-0.5-6.9-1.4s-4-2.2-5.6-3.8-2.8-3.5-3.8-5.6-1.4-4.4-1.4-6.9v-61.8c0-2.4 0.5-4.7 1.4-6.9s2.2-4 3.8-5.6 3.5-2.8 5.6-3.8 4.4-1.4 6.9-1.4zm-94.8 75.6c1.1 0 2.2 0.2 3.2 0.7s1.9 1 2.6 1.8 1.3 1.6 1.8 2.6 0.7 2.1 0.7 3.2v19c0 1.1-0.2 2.2-0.7 3.2s-1 1.9-1.8 2.6-1.6 1.3-2.6 1.8-2.1 0.7-3.2 0.7-2.2-0.2-3.2-0.7-1.9-1-2.6-1.8-1.3-1.6-1.8-2.6-0.7-2.1-0.7-3.2v-19c0-1.1 0.2-2.2 0.7-3.2s1-1.9 1.8-2.6 1.6-1.3 2.6-1.8 2.1-0.7 3.2-0.7zm25-29.6c1.1 0 2.2 0.2 3.2 0.7s1.9 1 2.6 1.8 1.3 1.6 1.8 2.6 0.7 2.1 0.7 3.2v48.6c0 1.1-0.2 2.2-0.7 3.2s-1 1.9-1.8 2.6-1.6 1.3-2.6 1.8-2.1 0.7-3.2 0.7-2.2-0.2-3.2-0.7-1.9-1-2.6-1.8-1.3-1.6-1.8-2.6-0.7-2.1-0.7-3.2v-48.6c0-1.1 0.2-2.2 0.6-3.2s1-1.9 1.7-2.6 1.6-1.4 2.6-1.8 2.2-0.7 3.4-0.7zm25 12.5c1.1 0 2.2 0.2 3.2 0.7s1.9 1 2.6 1.8 1.3 1.6 1.8 2.6 0.7 2.1 0.7 3.2v36.1c0 1.1-0.2 2.2-0.7 3.2s-1 1.9-1.8 2.6-1.6 1.3-2.6 1.8-2.1 0.7-3.2 0.7-2.2-0.2-3.2-0.7-1.9-1-2.6-1.8-1.3-1.6-1.8-2.6-0.7-2.1-0.7-3.2v-36.1c0-1.1 0.2-2.2 0.7-3.2s1-1.9 1.8-2.6 1.6-1.3 2.6-1.8 2.1-0.7 3.2-0.7zm25-32.7c1.1 0 2.2 0.2 3.2 0.7s1.9 1 2.6 1.8 1.3 1.6 1.8 2.6 0.7 2.1 0.7 3.2v68.8c0 1.1-0.2 2.2-0.7 3.2s-1 1.9-1.8 2.6-1.6 1.3-2.6 1.8-2.1 0.7-3.2 0.7-2.2-0.2-3.2-0.7-1.9-1-2.6-1.8-1.3-1.6-1.8-2.6-0.7-2.1-0.7-3.2v-68.8c0-1.1 0.2-2.2 0.7-3.2s1-1.9 1.8-2.6 1.6-1.3 2.6-1.8 2.1-0.7 3.2-0.7z" fill="#fff"/></g></svg>
