<?xml version="1.0" encoding="UTF-8" standalone="no"?>
<!-- Generator: Adobe Illustrator 19.1.0, SVG Export Plug-In . SVG Version: 6.00 Build 0)  -->

<svg
   xmlns:dc="http://purl.org/dc/elements/1.1/"
   xmlns:cc="http://creativecommons.org/ns#"
   xmlns:rdf="http://www.w3.org/1999/02/22-rdf-syntax-ns#"
   xmlns:svg="http://www.w3.org/2000/svg"
   xmlns="http://www.w3.org/2000/svg"
   xmlns:sodipodi="http://sodipodi.sourceforge.net/DTD/sodipodi-0.dtd"
   xmlns:inkscape="http://www.inkscape.org/namespaces/inkscape"
   version="1.1"
   id="Layer_1"
   x="0px"
   y="0px"
   viewBox="0 0 150 111.2"
   xml:space="preserve"
   sodipodi:docname="powerbi_icon.svg"
   width="150"
   height="111.2"
   inkscape:version="0.92.2 5c3e80d, 2017-08-06"><metadata
     id="metadata11"><rdf:RDF><cc:Work
         rdf:about=""><dc:format>image/svg+xml</dc:format><dc:type
           rdf:resource="http://purl.org/dc/dcmitype/StillImage" /><dc:title></dc:title></cc:Work></rdf:RDF></metadata><defs
     id="defs9" /><sodipodi:namedview
     pagecolor="#ffffff"
     bordercolor="#666666"
     borderopacity="1"
     objecttolerance="10"
     gridtolerance="10"
     guidetolerance="10"
     inkscape:pageopacity="0"
     inkscape:pageshadow="2"
     inkscape:window-width="1278"
     inkscape:window-height="687"
     id="namedview7"
     showgrid="false"
     fit-margin-top="0"
     fit-margin-left="0"
     fit-margin-right="0"
     fit-margin-bottom="0"
     inkscape:zoom="0.84285714"
     inkscape:cx="-77.237288"
     inkscape:cy="61.8"
     inkscape:window-x="0"
     inkscape:window-y="0"
     inkscape:window-maximized="0"
     inkscape:current-layer="Layer_1" /><g
     id="g4"
     transform="translate(-60,-90.6)"><path
       d="m 192.3,90.6 c 2.4,0 4.7,0.5 6.9,1.4 2.2,0.9 4,2.2 5.6,3.8 1.6,1.6 2.8,3.5 3.8,5.6 1,2.1 1.4,4.4 1.4,6.9 v 61.8 c 0,2.4 -0.5,4.7 -1.4,6.9 -0.9,2.2 -2.2,4 -3.8,5.6 -1.6,1.6 -3.5,2.9 -5.6,3.8 -2.1,0.9 -4.4,1.4 -6.9,1.4 h -3.1 v -6.1 h 3.1 c 1.6,0 3.1,-0.3 4.5,-0.9 1.4,-0.6 2.6,-1.5 3.7,-2.5 1.1,-1 1.8,-2.3 2.5,-3.7 0.7,-1.4 0.9,-2.9 0.9,-4.5 v -61.8 c 0,-1.6 -0.3,-3.1 -0.9,-4.5 -0.6,-1.4 -1.4,-2.6 -2.5,-3.7 -1.1,-1.1 -2.3,-1.9 -3.7,-2.5 -1.4,-0.6 -2.9,-0.9 -4.5,-0.9 H 77.7 c -1.6,0 -3.1,0.3 -4.5,0.9 -1.4,0.6 -2.6,1.4 -3.7,2.5 -1.1,1.1 -1.9,2.3 -2.5,3.7 -0.6,1.4 -0.9,2.9 -0.9,4.5 v 61.8 c 0,1.6 0.3,3.1 0.9,4.5 0.6,1.4 1.4,2.6 2.5,3.7 1.1,1.1 2.2,1.9 3.7,2.5 1.5,0.6 2.9,0.9 4.5,0.9 h 3.1 v 6.1 h -3.1 c -2.4,0 -4.7,-0.5 -6.9,-1.4 -2.2,-0.9 -4,-2.2 -5.6,-3.8 -1.6,-1.6 -2.8,-3.5 -3.8,-5.6 -1,-2.1 -1.4,-4.4 -1.4,-6.9 v -61.8 c 0,-2.4 0.5,-4.7 1.4,-6.9 0.9,-2.2 2.2,-4 3.8,-5.6 1.6,-1.6 3.5,-2.8 5.6,-3.8 2.1,-1 4.4,-1.4 6.9,-1.4 z m -94.8,75.6 c 1.1,0 2.2,0.2 3.2,0.7 1,0.5 1.9,1 2.6,1.8 0.7,0.8 1.3,1.6 1.8,2.6 0.5,1 0.7,2.1 0.7,3.2 v 19 c 0,1.1 -0.2,2.2 -0.7,3.2 -0.5,1 -1,1.9 -1.8,2.6 -0.8,0.7 -1.6,1.3 -2.6,1.8 -1,0.5 -2.1,0.7 -3.2,0.7 -1.1,0 -2.2,-0.2 -3.2,-0.7 -1,-0.5 -1.9,-1 -2.6,-1.8 -0.7,-0.8 -1.3,-1.6 -1.8,-2.6 -0.5,-1 -0.7,-2.1 -0.7,-3.2 v -19 c 0,-1.1 0.2,-2.2 0.7,-3.2 0.5,-1 1,-1.9 1.8,-2.6 0.8,-0.7 1.6,-1.3 2.6,-1.8 1,-0.5 2.1,-0.7 3.2,-0.7 z m 25,-29.6 c 1.1,0 2.2,0.2 3.2,0.7 1,0.5 1.9,1 2.6,1.8 0.7,0.8 1.3,1.6 1.8,2.6 0.5,1 0.7,2.1 0.7,3.2 v 48.6 c 0,1.1 -0.2,2.2 -0.7,3.2 -0.5,1 -1,1.9 -1.8,2.6 -0.8,0.7 -1.6,1.3 -2.6,1.8 -1,0.5 -2.1,0.7 -3.2,0.7 -1.1,0 -2.2,-0.2 -3.2,-0.7 -1,-0.5 -1.9,-1 -2.6,-1.8 -0.7,-0.8 -1.3,-1.6 -1.8,-2.6 -0.5,-1 -0.7,-2.1 -0.7,-3.2 v -48.6 c 0,-1.1 0.2,-2.2 0.6,-3.2 0.4,-1 1,-1.9 1.7,-2.6 0.7,-0.7 1.6,-1.4 2.6,-1.8 1,-0.4 2.2,-0.7 3.4,-0.7 z m 25,12.5 c 1.1,0 2.2,0.2 3.2,0.7 1,0.5 1.9,1 2.6,1.8 0.7,0.8 1.3,1.6 1.8,2.6 0.5,1 0.7,2.1 0.7,3.2 v 36.1 c 0,1.1 -0.2,2.2 -0.7,3.2 -0.5,1 -1,1.9 -1.8,2.6 -0.8,0.7 -1.6,1.3 -2.6,1.8 -1,0.5 -2.1,0.7 -3.2,0.7 -1.1,0 -2.2,-0.2 -3.2,-0.7 -1,-0.5 -1.9,-1 -2.6,-1.8 -0.7,-0.8 -1.3,-1.6 -1.8,-2.6 -0.5,-1 -0.7,-2.1 -0.7,-3.2 v -36.1 c 0,-1.1 0.2,-2.2 0.7,-3.2 0.5,-1 1,-1.9 1.8,-2.6 0.8,-0.7 1.6,-1.3 2.6,-1.8 1,-0.5 2.1,-0.7 3.2,-0.7 z m 25,-32.7 c 1.1,0 2.2,0.2 3.2,0.7 1,0.5 1.9,1 2.6,1.8 0.7,0.8 1.3,1.6 1.8,2.6 0.5,1 0.7,2.1 0.7,3.2 v 68.8 c 0,1.1 -0.2,2.2 -0.7,3.2 -0.5,1 -1,1.9 -1.8,2.6 -0.8,0.7 -1.6,1.3 -2.6,1.8 -1,0.5 -2.1,0.7 -3.2,0.7 -1.1,0 -2.2,-0.2 -3.2,-0.7 -1,-0.5 -1.9,-1 -2.6,-1.8 -0.7,-0.8 -1.3,-1.6 -1.8,-2.6 -0.5,-1 -0.7,-2.1 -0.7,-3.2 v -68.8 c 0,-1.1 0.2,-2.2 0.7,-3.2 0.5,-1 1,-1.9 1.8,-2.6 0.8,-0.7 1.6,-1.3 2.6,-1.8 1,-0.5 2.1,-0.7 3.2,-0.7 z"
       id="path2"
       inkscape:connector-curvature="0" /></g></svg>